<svg version="1.1" id="Layer_1" xmlns="http://www.w3.org/2000/svg" xmlns:xlink="http://www.w3.org/1999/xlink" x="0px" y="0px"
	 width="100%" viewBox="0 0 1024 544" enable-background="new 0 0 1024 544" xml:space="preserve">
<path fill="#000000" opacity="1.000000" stroke="none" 
	d="
M601.064758,449.640259 
	C599.193848,459.284149 596.749023,468.197998 590.999390,475.927185 
	C581.659912,488.482147 568.859436,494.397827 553.644653,495.032684 
	C541.834473,495.525482 529.985229,495.090118 518.153442,495.047516 
	C517.340698,495.044586 516.468201,495.037231 515.848755,494.101776 
	C515.272339,492.804138 516.389038,492.109192 517.149841,491.286133 
	C521.811768,486.242218 525.941467,480.782074 528.935303,474.605652 
	C530.633667,471.101776 533.100037,469.705444 536.824646,469.809998 
	C540.654785,469.917542 544.491394,469.898285 548.323242,469.828796 
	C566.356140,469.501862 576.048340,459.662201 576.050598,441.627014 
	C576.055603,402.294891 576.037048,362.962769 576.003845,323.630646 
	C575.975464,289.965210 575.917358,256.299774 575.863770,222.634354 
	C575.844788,210.692963 582.350098,203.758133 592.844055,204.676758 
	C598.705261,205.189819 602.350037,209.193069 605.658752,213.419281 
	C622.192749,234.537949 638.467041,255.862411 655.176575,276.840546 
	C674.587585,301.210144 693.757202,325.761200 712.694092,350.500061 
	C718.550781,358.151215 725.491455,364.754456 735.854065,365.613861 
	C747.354858,366.567657 756.755981,362.363739 763.830200,353.252075 
	C790.801270,318.512939 817.710144,283.725525 844.676758,248.983017 
	C854.278564,236.612579 863.947632,224.293961 873.653198,212.004822 
	C876.583923,208.294022 879.983276,205.239014 884.966858,204.370651 
	C893.578979,202.870026 900.167664,207.281952 901.533386,215.975998 
	C902.046326,219.241211 902.061340,222.607117 902.061279,225.927109 
	C902.060059,293.758392 902.006287,361.589661 902.025208,429.420959 
	C902.026855,435.394592 901.983704,441.346985 902.991516,447.332764 
	C906.021545,465.328979 922.028442,472.384155 937.887512,469.443909 
	C951.802673,466.864136 960.272461,458.418701 960.481018,439.773010 
	C961.032837,390.446838 960.666626,341.110291 960.654846,291.777893 
	C960.648926,266.778503 961.056824,241.768906 960.474121,216.782669 
	C959.926270,193.292358 960.810364,169.827087 960.588745,146.351913 
	C960.530701,140.197250 960.234497,134.021820 959.611389,127.900360 
	C958.383423,115.836311 951.534119,107.908386 939.460632,105.515755 
	C927.463806,103.138313 915.243286,103.269981 903.209167,105.408165 
	C894.570862,106.943001 887.838806,111.721283 882.182312,118.679932 
	C857.279175,149.315811 833.412170,180.752869 809.300415,212.002167 
	C790.172058,236.792877 771.006592,261.554962 751.852234,286.325653 
	C749.916138,288.829498 748.058777,291.459534 745.207764,293.012939 
	C739.675720,296.027222 733.050537,294.312469 728.493774,288.458282 
	C713.554077,269.264679 698.704895,250.000565 683.829773,230.756668 
	C664.367493,205.578400 644.975098,180.345795 625.429321,155.232544 
	C616.322571,143.531784 606.856445,132.111450 597.680420,120.463783 
	C588.847290,109.251358 576.965454,104.715874 563.150452,104.345421 
	C556.654724,104.171227 550.151672,104.268997 543.651978,104.246254 
	C541.790955,104.239746 539.878662,104.253761 538.822876,102.340744 
	C534.645935,94.772461 530.138489,87.431885 523.994873,81.390099 
	C525.634277,78.950882 527.648804,79.706146 529.336487,79.699013 
	C542.669250,79.642662 556.008789,79.431496 569.333984,79.761566 
	C586.543945,80.187874 601.569519,85.859116 613.075500,99.311760 
	C630.088318,119.202980 645.589905,140.281342 661.618164,160.945435 
	C686.225708,192.670120 710.774048,224.440704 735.360229,256.181946 
	C736.462341,257.604828 737.455078,259.225830 740.005066,259.605225 
	C743.090088,255.819229 746.405334,251.905151 749.554626,247.861862 
	C778.832336,210.272186 808.075745,172.655807 837.342651,135.057739 
	C845.630432,124.410645 853.894775,113.744171 862.290955,103.182762 
	C874.562439,87.746521 890.615845,79.715034 910.352966,79.757401 
	C922.325745,79.783104 934.369202,78.565758 946.272156,80.678238 
	C965.202515,84.037949 979.937500,98.756027 983.762207,117.699242 
	C986.760315,132.548523 985.647461,147.538467 985.650208,162.512421 
	C985.664978,243.004257 986.027832,323.496887 985.722839,403.987183 
	C985.661072,420.259338 986.867432,436.639404 984.353943,452.867035 
	C980.541016,477.483887 962.214417,494.008789 937.298035,495.230103 
	C923.765137,495.893463 910.551147,494.677399 899.051147,486.597687 
	C883.265442,475.507050 876.891785,459.612457 876.856323,440.878204 
	C876.739197,379.046387 876.751282,317.214325 876.679443,255.382370 
	C876.677612,253.782913 877.172668,252.083664 876.174988,250.476303 
	C874.073425,250.792328 873.294250,252.598648 872.232544,253.965805 
	C845.572266,288.294586 819.019714,322.707367 792.244141,356.945801 
	C786.314026,364.528748 780.857849,372.623322 773.232544,378.731506 
	C749.960327,397.373505 717.506653,394.619720 698.421143,371.736084 
	C683.593811,353.957825 669.559021,335.515411 655.283569,317.280792 
	C638.647949,296.031433 622.130188,274.689789 605.580994,253.372879 
	C604.966248,252.581055 604.558228,251.628784 603.517822,251.030396 
	C601.273315,255.766357 601.716553,260.409027 601.700928,264.847260 
	C601.583923,297.992828 601.671326,331.139374 601.757935,364.285400 
	C601.814148,385.769135 601.042358,407.250214 601.813843,428.739441 
	C602.058105,435.543152 601.381470,442.379913 601.064758,449.640259 
z"/>
<path fill="#000000" opacity="1.000000" stroke="none" 
	d="
M65.219917,486.885620 
	C49.078465,476.152466 42.377907,460.635193 42.118195,442.368561 
	C41.805676,420.387451 41.387177,398.379791 42.770065,376.403625 
	C44.753201,344.888672 56.012234,317.744476 80.884392,297.388733 
	C97.081841,284.132538 116.544281,278.362579 136.757019,274.708527 
	C160.891830,270.345398 185.274765,272.285126 209.558640,271.960571 
	C229.553146,271.693329 249.561356,271.681213 269.551758,272.106720 
	C287.500977,272.488770 301.004730,265.090668 309.453827,249.622849 
	C318.208008,233.596497 317.815338,217.032501 307.550293,201.792511 
	C299.131317,189.293243 286.815033,181.653656 271.494843,181.459259 
	C235.502701,181.002625 199.501266,181.251724 163.503632,181.280441 
	C157.104416,181.285553 155.299347,183.179581 155.273392,189.778961 
	C155.196701,209.277603 155.228760,228.776672 155.191864,248.275497 
	C155.179230,254.950256 155.087067,254.996979 148.560791,255.010666 
	C143.728683,255.020798 138.889053,254.908386 134.067230,255.145035 
	C130.901184,255.300430 129.607910,254.375229 129.526825,250.991364 
	C129.032501,230.360764 128.876099,209.722260 129.748398,189.113327 
	C130.264740,176.913803 134.904541,166.435577 146.167450,160.030685 
	C150.787460,157.403381 155.873734,156.693283 161.103073,156.677872 
	C191.599731,156.587952 222.096359,156.488342 252.593033,156.398666 
	C264.244781,156.364410 275.897919,156.121582 287.384705,158.757324 
	C322.248535,166.757187 343.592224,201.586731 341.638245,232.656570 
	C339.534271,266.111481 312.240326,291.946533 281.205414,297.357819 
	C270.374420,299.246338 259.622803,298.257965 248.837006,298.373169 
	C219.516418,298.686493 190.184692,299.298279 160.875687,298.771729 
	C146.659500,298.516357 132.950104,299.541840 119.756157,304.814758 
	C89.077751,317.075287 72.776642,340.269012 69.258690,372.662476 
	C66.643326,396.744873 68.443535,420.941162 68.364494,445.082947 
	C68.324295,457.360413 77.266556,466.983582 90.284119,469.282379 
	C97.862770,470.620728 105.572319,470.413391 112.966621,467.641907 
	C122.697830,463.994415 128.395248,456.932892 128.722275,446.613678 
	C129.234100,430.463501 128.937881,414.289124 129.134247,398.126831 
	C129.206985,392.140320 129.130386,386.062958 130.112610,380.192810 
	C133.384827,360.636871 144.346191,351.938416 165.468384,351.890808 
	C198.466248,351.816467 231.464691,351.857269 264.462555,351.953888 
	C296.102814,352.046570 325.044373,343.583191 350.417999,324.431152 
	C371.067841,308.844574 385.987762,288.725739 393.448639,263.905579 
	C400.633362,240.004181 401.548615,215.722931 393.222656,191.698715 
	C378.047028,147.910233 347.412964,120.951653 302.988770,109.119431 
	C289.385315,105.496208 275.461365,104.191811 261.439911,104.180435 
	C207.275909,104.136505 153.111816,104.213165 98.947762,104.266548 
	C96.287933,104.269173 93.578163,104.186317 90.976860,104.636086 
	C76.089668,107.210091 68.319931,116.514771 68.254059,132.235809 
	C68.119293,164.400284 68.179199,196.565552 68.157936,228.730499 
	C68.147362,244.729446 68.081810,260.728668 68.165771,276.727112 
	C68.183319,280.070679 67.497108,282.898438 65.067230,285.335602 
	C57.772156,292.652618 50.552563,300.045044 45.266968,309.050385 
	C45.052319,309.416107 44.465153,309.563232 43.186325,310.333038 
	C42.792236,305.715942 42.133694,301.560638 42.128994,297.404602 
	C42.070541,245.740952 41.966892,194.076477 42.229740,142.414017 
	C42.286877,131.183594 42.424843,119.932915 47.594658,109.205475 
	C57.216156,89.240707 73.196663,79.886536 94.698601,79.788574 
	C147.695190,79.547142 200.693649,79.738312 253.691238,79.671822 
	C267.196838,79.654877 280.766174,79.256935 294.068359,81.748238 
	C323.607208,87.280418 351.297424,97.158432 373.886749,118.076500 
	C378.782166,122.609734 383.328400,126.336182 383.789001,134.673935 
	C385.031403,157.163116 393.573822,177.009918 410.565857,192.579224 
	C411.302856,193.254517 411.947052,194.170609 412.818512,194.538376 
	C423.396484,199.002228 423.752838,208.492493 424.182037,217.808548 
	C425.840973,253.816864 417.170288,287.064270 395.283722,315.898010 
	C379.531464,336.650360 359.026764,352.067719 334.950256,362.370270 
	C312.823547,371.838470 289.783783,377.188690 265.599060,377.115601 
	C231.269730,377.011871 196.940247,376.961517 162.610825,376.882507 
	C158.172302,376.872284 155.266968,380.105377 155.241440,385.590851 
	C155.156937,403.756134 155.413376,421.925812 155.102844,440.086365 
	C154.833267,455.852386 150.828568,470.414703 139.000290,481.794281 
	C131.415604,489.091248 122.178024,493.307800 111.856026,494.518738 
	C95.788429,496.403778 79.872948,496.345367 65.219917,486.885620 
z"/>
<path fill="#000000" opacity="1.000000" stroke="none" 
	d="
M518.117065,371.000000 
	C518.117676,394.664490 518.454895,417.835510 518.008423,440.991394 
	C517.661255,458.998505 511.094604,474.365906 496.291870,485.617889 
	C489.597565,490.706482 482.131958,493.725586 473.910706,494.782745 
	C441.417358,498.961273 418.533325,486.119904 409.651703,455.490662 
	C408.259735,450.690247 407.831299,445.651031 407.824463,440.657104 
	C407.776489,405.660492 407.830353,370.663757 407.808167,335.667084 
	C407.806091,332.415710 408.192993,329.325409 410.215302,326.677826 
	C418.672485,315.605591 425.302643,303.536743 430.121643,290.465271 
	C430.464508,289.535217 430.970978,288.655334 431.486847,287.803925 
	C431.711731,287.432709 432.152496,287.192261 432.538422,286.854614 
	C434.022064,288.158875 433.272888,289.747864 433.273895,291.124817 
	C433.310272,340.620239 433.181915,390.116150 433.385956,439.610779 
	C433.438324,452.316772 438.321564,462.907288 450.828674,468.021179 
	C462.759705,472.899475 474.143921,471.208313 483.932617,462.616669 
	C490.192474,457.122375 492.509247,449.377625 492.546234,441.434174 
	C492.741028,399.609497 492.706909,357.782593 492.496277,315.957733 
	C492.403259,297.484558 492.022156,279.015625 492.463654,260.540894 
	C492.650452,252.724945 491.569672,244.900452 492.540466,237.078644 
	C492.664520,236.078857 492.401337,235.086304 491.125305,233.924362 
	C483.435852,235.603058 475.400787,237.474747 467.056030,237.694183 
	C459.999878,237.879745 453.129608,236.861099 446.204468,236.044571 
	C444.129425,235.799911 442.896545,234.568771 442.894714,232.361847 
	C442.889099,225.567047 442.892670,218.772247 442.892670,210.964905 
	C470.406555,216.499252 495.209290,210.840836 518.116211,192.295731 
	C518.116211,252.507797 518.116211,311.503906 518.117065,371.000000 
z"/>
<path fill="#000000" opacity="1.000000" stroke="none" 
	d="
M402.607422,126.801826 
	C406.556152,101.567902 419.832336,83.537315 443.520691,75.364952 
	C468.023865,66.911484 490.716370,71.888626 509.149658,90.868530 
	C529.233459,111.547882 531.681885,143.844513 515.592773,168.271179 
	C500.381989,191.364487 469.652039,201.491867 443.249969,191.591034 
	C417.767944,182.035233 404.408813,163.060364 401.930298,136.179413 
	C401.654266,133.186005 401.889435,130.187469 402.607422,126.801826 
M480.774506,99.666283 
	C479.692505,99.232063 478.621582,98.767487 477.526825,98.368210 
	C462.355408,92.834641 445.208557,97.473137 435.028687,109.855606 
	C425.456177,121.499298 423.953674,140.642838 431.640564,153.024872 
	C440.064087,166.593521 457.110870,173.792114 472.725830,170.374619 
	C488.043396,167.022202 499.995789,153.359573 502.448273,136.399246 
	C504.317810,123.470215 495.098999,107.486252 480.774506,99.666283 
z"/>
<path fill="#000000" opacity="1.000000" stroke="none" 
	d="
M489.595398,143.742325 
	C485.746216,155.965302 469.404327,161.385101 458.828400,158.795227 
	C451.652679,157.038025 444.774811,154.418350 440.457214,147.772644 
	C439.081726,145.655472 437.529663,143.221405 439.933136,141.028687 
	C442.367218,138.808060 445.426300,137.974380 448.718353,139.253967 
	C449.160675,139.425888 449.482178,139.889420 449.887177,140.179459 
	C461.501801,148.497406 467.397308,148.562912 478.793243,140.508102 
	C483.095612,137.467133 487.060211,138.516541 489.595398,143.742325 
z"/>
</svg>